<svg width="292" height="314" fill="none" xmlns="http://www.w3.org/2000/svg"><path d="M284.498 83.043c6.211-26.611-8.292-37.937-13.439-38.987-10.223 5.684-22.501 28.322-26.59 40.436l28.025 5.715c5.329 1.087 10.767-1.868 12.004-7.164Z" fill="#B8C5D9"/><path d="M177.415 306.043 14.421 272.801c-5.872-1.197-9.979-6.543-9.44-12.512 8.445-93.66 49.526-197.811 72.99-246.603 2.344-4.876 7.707-7.437 13.008-6.356l180.08 36.726c-40.855 36.49-68.731 175.647-79.249 251.754-.958 6.929-7.541 11.63-14.395 10.233Z" fill="url(#Illustration__a)"/><path d="M59.534 109.243c5.735-20.38 19.046-54.774 27.337-75.198 1.429-3.52 5.145-5.514 8.876-4.798L222.63 53.594c5.081.974 7.918 6.439 5.857 11.184-10.517 24.224-21.827 53.965-28.686 77.356-1.217 4.149-5.441 6.685-9.651 5.7L65.255 118.613c-4.241-.992-6.901-5.178-5.721-9.37Z" fill="#fff"/><mask id="Illustration__b" style="mask-type:alpha" maskUnits="userSpaceOnUse" x="59" y="29" width="171" height="120"><path d="M59.533 109.243c5.736-20.38 19.047-54.775 27.338-75.199 1.428-3.52 5.145-5.513 8.876-4.797L222.63 53.593c5.081.975 7.917 6.44 5.857 11.185-10.517 24.223-21.827 53.965-28.687 77.355-1.216 4.149-5.44 6.685-9.65 5.7L65.254 118.612c-4.24-.992-6.9-5.177-5.72-9.369Z" fill="#fff"/></mask><g mask="url(#Illustration__b)"><path d="M210.923 129.945 52.863 89.241l-12.158 24.317c-1.27 2.537 1.585 7.048 3.171 8.986l30.132 10.044 136.915 28.017v-30.66Z" fill="#317D46"/><circle cx="76.122" cy="107.84" r="2.115" fill="#19CA6A"/><circle cx="94.096" cy="117.355" r="2.115" fill="#19CA6A"/><circle cx="116.298" cy="117.355" r="2.115" fill="#19CA6A"/><circle cx="138.5" cy="128.985" r="2.115" fill="#19CA6A"/><circle cx="167.046" cy="130.042" r="2.115" fill="#19CA6A"/><circle cx="189.249" cy="138.5" r="2.115" fill="#19CA6A"/><path d="M106.436 80.211c-16.224-8.15-36.824-4.97-54.816.107-7.762 2.19-7.223 13.46.62 15.34l186.034 44.599c6.582 1.577 13.317-5.763 10.462-11.899-1.458-3.133-3.418-6.702-6.236-10.857-11.195-16.511-38.101-29.166-76.5-26-34.5 2.843-38.001-.456-59.564-11.29Z" fill="url(#Illustration__c)"/></g><circle cx="144.316" cy="67.136" r="12.158" fill="#FFA450"/><path d="M171.276 69.25c3.7-2.995 12.052-6.766 15.858 2.115 5.991-5.11 19.56-12.159 25.903.528m-91.406-12.842c-2.147-2.648-7.438-6.531-11.424-.875-3.438-4.47-11.896-11.424-18.225-3.478" stroke="#B8C5D9" stroke-width="2" stroke-linecap="round"/><path d="m50.22 142.201 139.557 31.189M38.061 189.249l139.558 31.189M45.462 165.989l76.123 16.916m16.387 4.229 45.462 9.515" stroke="#B0B8BF" stroke-width="4" stroke-linecap="round"/><path d="m29.603 242.284 19.519-22.375c-4.88 9.086-13.42 26.281-8.54 22.375 6.1-4.882 13.826-8.136 14.233-1.627.406 6.509 3.253 3.255 7.32 1.627 4.066-1.627 2.032 4.882 2.846 6.509.65 1.302 4.88.543 6.913 0" stroke="#323F4B" stroke-width="2" stroke-linecap="round"/><rect x="134.478" y="241" width="38.061" height="21.145" rx="3" transform="rotate(12.225 134.478 241)" fill="#FFA450"/><defs><linearGradient id="Illustration__a" x1="141" y1="78.5" x2="95.5" y2="404.5" gradientUnits="userSpaceOnUse"><stop stop-color="#EBEEF0"/><stop offset="1" stop-color="#fff"/></linearGradient><linearGradient id="Illustration__c" x1="138.164" y1="73.124" x2="126.5" y2="162.001" gradientUnits="userSpaceOnUse"><stop stop-color="#19CA6A"/><stop offset="1" stop-color="#fff"/></linearGradient></defs></svg>